HIERARCHY
ROOT root
{
	OFFSET 0.000000 0.000000 0.000000
	CHANNELS 6 Xposition Yposition Zposition Zrotation Yrotation Xrotation
	JOINT lhip
	{
		OFFSET 0.058581 -0.082280 -0.017664
		CHANNELS 3 Zrotation Yrotation Xrotation
		JOINT lknee
		{
			OFFSET 0.043451 -0.386469 0.008037
			CHANNELS 3 Zrotation Yrotation Xrotation
			JOINT lankle
			{
				OFFSET -0.014790 -0.426874 -0.037428
				CHANNELS 3 Zrotation Yrotation Xrotation
				JOINT ltoe
				{
					OFFSET 0.041054 -0.060286 0.122042
					CHANNELS 3 Zrotation Yrotation Xrotation
					End Site
					{
						OFFSET 0.000000 0.000000 0.000000
					}
				}
			}
		}
	}
	JOINT rhip
	{
		OFFSET -0.060310 -0.090513 -0.013543
		CHANNELS 3 Zrotation Yrotation Xrotation
		JOINT rknee
		{
			OFFSET -0.043257 -0.383688 -0.004843
			CHANNELS 3 Zrotation Yrotation Xrotation
			JOINT rankle
			{
				OFFSET 0.019056 -0.420046 -0.034562
				CHANNELS 3 Zrotation Yrotation Xrotation
				JOINT rtoe
				{
					OFFSET -0.034840 -0.062106 0.130323
					CHANNELS 3 Zrotation Yrotation Xrotation
					End Site
					{
						OFFSET 0.000000 0.000000 0.000000
					}
				}
			}
		}
	}
	JOINT lowerback
	{
		OFFSET 0.004439 0.124404 -0.038385
		CHANNELS 3 Zrotation Yrotation Xrotation
		JOINT upperback
		{
			OFFSET 0.004488 0.137956 0.026820
			CHANNELS 3 Zrotation Yrotation Xrotation
			JOINT chest
			{
				OFFSET -0.002265 0.056032 0.002855
				CHANNELS 3 Zrotation Yrotation Xrotation
				JOINT lowerneck
				{
					OFFSET -0.013390 0.211636 -0.033468
					CHANNELS 3 Zrotation Yrotation Xrotation
					JOINT upperneck
					{
						OFFSET 0.010113 0.088937 0.050410
						CHANNELS 3 Zrotation Yrotation Xrotation
						End Site
						{
							OFFSET 0.000000 0.000000 0.000000
						}
					}
				}
				JOINT lclavicle
				{
					OFFSET 0.071702 0.114000 -0.018898
					CHANNELS 3 Zrotation Yrotation Xrotation
					JOINT lshoulder
					{
						OFFSET 0.122921 0.045205 -0.019046
						CHANNELS 3 Zrotation Yrotation Xrotation
						JOINT lelbow
						{
							OFFSET 0.255332 -0.015649 -0.022946
							CHANNELS 3 Zrotation Yrotation Xrotation
							JOINT lwrist
							{
								OFFSET 0.265709 0.012698 -0.007375
								CHANNELS 3 Zrotation Yrotation Xrotation
								End Site
								{
									OFFSET 0.000000 0.000000 0.000000
								}
							}
						}
					}
				}
				JOINT rclavicle
				{
					OFFSET -0.082954 0.112472 -0.023707
					CHANNELS 3 Zrotation Yrotation Xrotation
					JOINT rshoulder
					{
						OFFSET -0.113228 0.046853 -0.008472
						CHANNELS 3 Zrotation Yrotation Xrotation
						JOINT relbow
						{
							OFFSET -0.260127 -0.014369 -0.031269
							CHANNELS 3 Zrotation Yrotation Xrotation
							JOINT rwrist
							{
								OFFSET -0.269108 0.006794 -0.006027
								CHANNELS 3 Zrotation Yrotation Xrotation
								End Site
								{
									OFFSET 0.000000 0.000000 0.000000
								}
							}
						}
					}
				}
			}
		}
	}
}
MOTION
Frames: 11
Frame Time: 0.033333
-0.465049 0.902305 1.028626 27.936283 -0.880257 89.697148 0.256668 5.028589 -3.662963 -4.335955 2.453280 5.819530 6.067504 14.822124 -9.635025 0.000000 -0.000000 0.000000 -11.824450 -4.555890 -8.281743 -0.065046 0.619724 27.762352 8.628759 -6.764197 -10.251937 0.000000 -0.000000 0.000000 -2.877314 2.288554 9.243753 -0.013058 -2.873733 2.393519 -0.870289 -0.890110 -5.147142 1.144408 1.333068 -7.442976 2.474851 0.384479 5.103311 -25.814363 4.065639 -2.393499 -52.686458 -2.933768 11.072848 12.933071 -32.847910 -5.788088 -2.660947 -11.555655 -1.680013 28.943739 0.190018 1.339784 51.986268 -3.455211 16.571909 -7.073931 33.914296 1.638659 0.860690 7.362647 6.510163 
-0.472626 0.899592 1.028098 27.788308 -1.209757 89.744685 0.326835 4.844303 -3.749869 -4.149286 2.787426 5.771335 5.789763 15.114439 -9.418123 0.000000 -0.000000 0.000000 -11.511896 -4.570144 -7.962392 -0.156342 1.970385 27.458843 9.842146 -5.327039 -9.290022 0.000000 -0.000000 0.000000 -2.963689 2.752084 8.900365 -0.113571 -2.900288 2.394783 -0.796408 -0.789719 -5.093967 1.002898 0.807359 -7.602372 2.711984 0.098390 5.062690 -25.598066 4.203868 -2.332402 -52.975004 -2.516182 11.220267 12.792685 -31.834868 -5.141989 -3.412250 -11.543511 -2.000955 29.108626 0.286996 1.167634 52.119395 -3.318514 16.835596 -6.985298 34.265078 1.700194 2.145614 7.347821 5.225611 
-0.481340 0.896734 1.027783 27.857062 -1.448490 89.883958 0.635358 4.774947 -4.196832 -4.083425 2.650758 6.164833 5.332577 15.084087 -9.359246 0.000000 -0.000000 0.000000 -11.016276 -4.983635 -7.519977 -0.862064 1.669443 26.076000 10.048303 -5.685090 -9.974614 0.000000 -0.000000 0.000000 -3.074684 3.029708 8.697276 -0.075720 -3.120732 2.213786 -0.619734 -0.588593 -5.103192 1.118056 0.842096 -7.658157 2.464211 -0.239679 4.726777 -25.478245 4.446734 -2.426407 -52.879640 -1.808889 11.290092 12.150210 -31.187529 -4.596398 -3.601887 -11.544913 -2.003879 29.040156 0.397563 1.348554 52.103390 -2.988223 16.686552 -6.841170 34.563129 1.734024 1.857718 7.949385 5.565884 
-0.492145 0.892914 1.027509 27.751781 -1.711652 89.844950 1.014441 5.021021 -4.423557 -3.755842 2.765983 6.495033 4.627680 15.000302 -9.081626 0.000000 -0.000000 0.000000 -10.494772 -5.298488 -6.302500 -1.105530 0.342567 23.908605 9.351961 -6.562120 -10.995361 0.000000 -0.000000 0.000000 -2.810375 3.079845 8.453075 -0.248482 -2.921326 2.271027 -0.757390 -0.482778 -5.057535 1.055255 0.721788 -7.941381 2.390168 -0.861752 4.549014 -25.482294 4.844473 -2.602022 -52.893770 -1.129173 11.084494 12.101856 -29.951346 -4.063006 -4.774307 -11.192335 -1.491031 29.064153 0.656600 1.151767 52.226508 -2.896773 16.651550 -6.853392 34.928428 2.355051 2.810489 7.774814 5.342837 
-0.498939 0.890665 1.027137 27.833281 -1.910052 89.685015 1.122424 4.903355 -4.218897 -3.488541 2.903640 6.306047 4.283726 15.004845 -8.857317 0.000000 -0.000000 0.000000 -10.037256 -5.543574 -5.408936 -1.185144 -0.658918 22.530407 8.448217 -7.403677 -11.840467 0.000000 -0.000000 0.000000 -2.607271 3.245802 8.476418 -0.444165 -2.735447 1.995795 -0.753346 -0.618734 -4.653039 1.081185 0.534885 -7.884835 2.278608 -1.331387 4.547889 -25.503593 4.811350 -2.182843 -53.060917 -1.077349 10.661494 12.317104 -29.189967 -4.038893 -4.848723 -11.097932 -1.918165 28.853934 0.798129 1.263779 52.331884 -2.873116 16.530601 -6.777822 35.462517 2.598956 2.924799 7.791745 4.768067 
-0.509234 0.888362 1.026977 27.951747 -2.187049 89.649232 1.436499 5.216675 -4.512715 -3.315026 2.881651 6.929355 3.406014 14.765702 -9.233111 0.000000 -0.000000 0.000000 -9.128205 -5.517212 -4.633331 -1.708503 -1.802044 21.043898 7.601735 -8.806231 -12.663252 0.000000 -0.000000 0.000000 -2.636047 3.041976 8.556165 -0.503018 -2.688141 1.892053 -0.715859 -0.438022 -4.673954 1.135753 0.425431 -8.092439 2.038698 -1.421343 4.246713 -25.685436 5.030149 -2.259592 -52.851039 -0.311052 10.661966 12.030618 -28.641366 -3.673417 -4.448671 -10.489787 -1.667201 28.865185 0.986474 0.822488 51.947375 -3.233611 16.430733 -6.313482 36.083048 2.856504 1.240212 7.698515 5.394032 
-0.519549 0.885134 1.026229 27.671404 -2.517569 89.403284 1.685560 5.409641 -4.228099 -3.106431 2.855478 6.545739 3.383737 14.932709 -8.558219 0.000000 -0.000000 0.000000 -8.463450 -5.655282 -3.853677 -2.158789 -1.995925 19.838579 6.622672 -9.214138 -13.766500 0.000000 -0.000000 0.000000 -2.549484 3.280732 8.547686 -0.623171 -2.561355 2.137378 -0.828183 -0.279151 -4.602219 1.053979 0.396846 -8.079706 2.147281 -1.822268 4.135885 -25.662706 5.242825 -2.166775 -53.004496 -0.118125 10.418052 12.088682 -27.790422 -3.728047 -5.410583 -10.504354 -1.693629 28.565543 1.210646 0.903375 52.063785 -3.024155 16.426130 -6.242781 36.279458 3.391624 2.441537 8.109928 4.784598 
-0.530190 0.882736 1.025514 27.895657 -2.801109 89.391433 2.044929 5.403626 -4.404136 -3.010980 2.680815 6.509473 2.956764 14.747417 -7.976796 0.000000 -0.000000 0.000000 -8.033952 -5.636306 -3.123060 -2.158942 -2.212882 18.382397 6.144175 -9.632812 -14.321134 0.000000 -0.000000 0.000000 -2.435635 3.122735 8.517988 -0.728540 -2.618692 2.188345 -0.858161 -0.164136 -4.500814 1.045079 0.187972 -8.349183 2.133301 -1.930250 3.844790 -25.938041 5.549930 -2.238204 -52.824540 0.568151 10.366087 11.932706 -27.977617 -3.606078 -5.445288 -10.322121 -2.015230 28.544547 1.226292 0.978270 51.668894 -2.949798 16.335104 -6.133877 37.071471 3.340254 2.006137 7.996092 4.511863 
-0.540962 0.880671 1.025337 28.041967 -2.978205 89.221702 2.501398 5.369100 -4.445881 -2.976428 2.318330 6.603794 2.554349 14.705181 -7.420282 0.000000 -0.000000 0.000000 -7.629505 -5.411341 -2.186948 -1.949516 -2.119011 16.909287 5.610868 -9.737862 -14.604396 0.000000 -0.000000 0.000000 -2.057027 3.046267 8.676012 -0.808353 -2.630495 2.130412 -0.871166 -0.134264 -4.262151 0.825071 0.150877 -8.442668 1.965087 -1.860110 3.946054 -26.255191 5.497548 -1.947718 -52.847586 0.863272 10.282068 11.753435 -27.657985 -3.063619 -5.033208 -10.377769 -2.357105 28.263225 1.175943 0.871412 51.319135 -2.893151 16.187493 -5.739398 37.627990 3.863395 1.907583 8.099379 3.955711 
-0.555377 0.878785 1.025187 28.409799 -3.069502 89.444583 3.078100 5.552759 -5.024572 -2.702968 2.005444 6.640519 1.942235 14.216895 -6.756769 0.000000 -0.000000 0.000000 -6.829733 -5.808912 -1.705089 -1.772539 -2.437501 15.309919 4.791050 -9.871823 -14.678631 0.000000 -0.000000 0.000000 -1.516867 2.995613 8.541148 -0.757030 -2.706452 2.041896 -0.947139 -0.191447 -4.196538 0.696400 0.053186 -8.416500 1.625429 -1.865376 3.760523 -26.535816 5.879961 -2.053383 -53.474434 1.103819 10.337178 11.847687 -27.341012 -2.702043 -4.712277 -10.160091 -2.429914 28.043653 0.732746 0.673198 50.948763 -2.737492 15.967824 -5.727887 38.002450 4.054583 1.704098 8.026518 3.728444 
-0.567306 0.878105 1.025600 28.760268 -3.041352 89.370052 3.553978 5.546220 -5.253425 -2.268669 1.603895 6.601114 1.237558 14.345712 -6.277436 0.000000 -0.000000 0.000000 -6.064147 -5.667769 -1.111784 -1.583266 -2.914691 13.984284 4.173539 -10.240563 -14.414997 0.000000 -0.000000 0.000000 -1.102128 2.734799 8.520694 -0.606932 -2.557328 2.447869 -0.929413 -0.204505 -4.150841 0.439456 -0.181130 -8.543100 1.273780 -1.779523 3.877677 -27.027747 6.012116 -2.118046 -53.736891 1.033276 10.367739 11.770204 -27.436950 -2.812327 -4.830601 -9.899745 -2.585830 28.041627 0.541927 0.434798 50.308029 -2.545722 15.751568 -5.672491 38.073771 4.172423 2.102000 7.927800 4.012419 
